# xmcd
#
# Track frame offsets: 
#        150
#        9356
#        19216
#        29102
#        41604
#        53872
#        68926
#        85107
#        102217
#        125083
#        136632
#        149389
#        159852
#        180103
#
# Disc length: 2775 seconds
#
# Revision: 0
# Processed by: cddbd v1.5.2PL0 Copyright (c) Steve Scherf et al.
# Submitted via: ExactAudioCopy v0.99pb4
#
DISCID=b10ad50e
DTITLE=Thomas Bailey - brilliancy
DYEAR=2001
DGENRE=Bluegrass
TTITLE0=I've no sugarbaby now
TTITLE1=don't come home drunk
TTITLE2=chicken in the barnyard
TTITLE3=hog went thru the fence, yoke 'n all
TTITLE4=far in the mountain
TTITLE5=cumberland gap
TTITLE6=cindy
TTITLE7=pretty little girl with the blue dress on
TTITLE8=brilliancy
TTITLE9=take a pony to stony point
TTITLE10=citigo
TTITLE11=sister sara
TTITLE12=reuben's cabin
TTITLE13=the hangman's reel
EXTD=
EXTT0=
EXTT1=
EXTT2=
EXTT3=
EXTT4=
EXTT5=
EXTT6=
EXTT7=
EXTT8=
EXTT9=
EXTT10=
EXTT11=
EXTT12=
EXTT13=
PLAYORDER=
